<svg width="216" height="1421" viewBox="0 0 216 1421" fill="none" xmlns="http://www.w3.org/2000/svg">
<path opacity="0.05" d="M210 1420.19H5.76322V1391.63H91.1503V1288.36H5.76322V1259.51H210V1288.36H116.536V1391.63H210V1420.19ZM116.536 1181.48H184.615V1074.74H210V1210.04H5.76322V1079.07H30.8601V1181.48H92.0158V1085.13H116.536V1181.48ZM210 1036.79H5.76322L5.76322 966.687C5.76322 953.033 7.7825 939.956 11.8211 927.455C15.6673 914.763 21.5329 903.032 29.4177 892.262C37.3026 881.493 48.0721 872.838 61.7264 866.3C75.1883 859.761 90.5734 856.492 107.882 856.492C124.613 856.492 139.709 859.761 153.171 866.3C166.633 872.838 177.403 881.493 185.48 892.262C193.365 902.839 199.423 914.57 203.654 927.455C207.885 940.148 210 953.225 210 966.687L210 1036.79ZM30.5716 1008.23H184.903L184.903 972.457C184.903 947.264 178.076 926.782 164.422 911.013C150.575 895.051 131.728 887.07 107.882 887.07C83.2655 887.07 64.2265 894.955 50.7645 910.724C37.3026 926.494 30.5716 947.071 30.5716 972.457L30.5716 1008.23ZM107.593 611.367C138.94 611.367 164.71 621.655 184.903 642.233C205.096 662.618 215.192 688.484 215.192 719.831C215.192 750.986 205.096 776.756 184.903 797.141C164.71 817.527 138.94 827.719 107.593 827.719C76.0537 827.719 50.3799 817.623 30.5716 797.43C10.571 777.045 0.570754 751.178 0.570754 719.831C0.570754 688.484 10.571 662.618 30.5716 642.233C50.3799 621.655 76.0537 611.367 107.593 611.367ZM107.593 642.233C84.5155 642.233 65.0919 649.349 49.3222 663.58C33.5525 677.811 25.6676 696.561 25.6676 719.831C25.6676 742.717 33.5525 761.275 49.3222 775.506C65.0919 789.737 84.5155 796.853 107.593 796.853C130.863 796.853 150.383 789.737 166.153 775.506C181.73 761.275 189.519 742.717 189.519 719.831C189.519 696.561 181.73 677.811 166.153 663.58C150.383 649.349 130.863 642.233 107.593 642.233ZM5.76322 535.317L169.037 428.583V428.006H5.76322V399.447H210V435.506L43.2643 543.394V543.971H210V572.529H5.76322V535.317ZM5.76322 321.139H210V349.697H5.76322V321.139ZM23.9368 149.648L43.5528 169.841C37.7834 174.072 33.1679 179.745 29.7062 186.861C26.2446 193.784 24.5138 201.38 24.5138 209.65C24.5138 220.035 27.3985 229.266 33.1679 237.343C38.7449 245.42 46.9183 249.459 57.6878 249.459C63.0726 249.459 67.6881 248.497 71.5344 246.574C75.1883 244.651 78.4577 241.381 81.3424 236.766C84.0347 232.15 86.1502 228.016 87.6887 224.362C89.0349 220.708 90.958 215.131 93.4581 207.63C95.7659 200.13 97.689 194.457 99.2275 190.611C100.574 186.572 102.978 181.38 106.439 175.033C109.901 168.687 113.555 163.879 117.401 160.61C121.055 157.148 125.959 154.167 132.113 151.667C138.267 148.975 145.287 147.629 153.171 147.629C173.172 147.629 188.557 154.552 199.327 168.398C209.904 182.053 215.192 198.688 215.192 218.304C215.192 231.573 212.692 244.266 207.692 256.382C202.5 268.305 195.096 278.017 185.48 285.517L166.729 263.305C173.845 258.497 179.614 252.055 184.038 243.978C188.461 235.708 190.673 226.958 190.673 217.727C190.673 206.957 187.692 197.438 181.73 189.168C175.576 180.899 166.922 176.764 155.768 176.764C150.96 176.764 146.633 177.726 142.786 179.649C138.94 181.572 135.863 183.687 133.555 185.995C131.248 188.303 128.94 192.053 126.632 197.245C124.132 202.438 122.305 206.669 121.151 209.938C119.997 213.015 118.363 218.111 116.247 225.227C113.747 232.92 111.343 239.458 109.035 244.843C106.535 250.035 103.17 255.516 98.939 261.286C94.5158 266.863 88.9387 271.094 82.2078 273.978C75.4768 276.863 67.6881 278.306 58.8417 278.306C45.9567 278.306 34.9948 274.748 25.9561 267.632C16.7251 260.517 10.1864 251.862 6.34015 241.67C2.49389 231.285 0.570754 220.131 0.570754 208.207C0.570754 196.476 2.6862 185.418 6.91708 175.033C11.148 164.456 16.8212 155.994 23.9368 149.648ZM30.8601 40.1127H210L210 68.6712H30.8601V134.154H5.76322L5.76322 -25.37H30.8601V40.1127Z" fill="#302C26"/>
</svg>
