<svg width="16" height="12" viewBox="0 0 16 12" fill="none" xmlns="http://www.w3.org/2000/svg">
<path d="M15.5564 6.44229H1.51384L5.32512 10.2536C5.49926 10.4277 5.49926 10.707 5.32512 10.8811C5.15098 11.0553 4.87171 11.0553 4.69757 10.8811L0.130602 6.31415C-0.0435341 6.14001 -0.0435341 5.86074 0.130602 5.6866L4.69757 1.11963C4.783 1.03421 4.89799 0.988208 5.0097 0.988208C5.12141 0.988208 5.23641 1.03092 5.32183 1.11963C5.49597 1.29377 5.49597 1.57304 5.32183 1.74718L1.51055 5.55846H15.5564C15.8029 5.55846 16 5.7556 16 6.00202C16 6.24844 15.8029 6.44229 15.5564 6.44229Z" fill="black"/>
</svg>
