<svg width="18" height="18" viewBox="0 0 18 18" fill="none" xmlns="http://www.w3.org/2000/svg">
<path d="M17.9977 2.8149C17.9977 2.13523 17.4401 1.5842 16.7522 1.5842H14.6461V0.502071C14.6461 0.224851 14.4185 0 14.138 0H13.0406C12.7612 0 12.5319 0.224851 12.5319 0.502071V1.58477H5.53837V0.502071C5.53837 0.224851 5.31082 0 5.03028 0H4.00602C3.72547 0 3.49792 0.224851 3.49792 0.502071V1.58477H1.24547C0.557639 1.58477 0 2.1358 0 2.81547V7.20091H0.656148V16.7351C0.656148 17.4347 1.22934 18.0006 1.93676 18.0006H15.9895C16.6975 18.0006 17.2701 17.4347 17.2701 16.7351V7.20034H18L17.9977 2.8149ZM15.2291 14.6466C15.2291 15.3462 14.6565 15.912 13.9485 15.912H4.0498C3.34238 15.912 2.76919 15.3462 2.76919 14.6466V7.20034H15.2285V14.6466H15.2291Z" fill="black"/>
<path d="M6.55745 8.56738H4.51758V10.6559H6.55745V8.56738Z" fill="black"/>
<path d="M10.0555 8.56738H8.01562V10.6559H10.0555V8.56738Z" fill="black"/>
<path d="M13.5522 8.56738H11.5117V10.6559H13.5522V8.56738Z" fill="black"/>
<path d="M6.55745 12.2402H4.51758V14.3282H6.55745V12.2402Z" fill="black"/>
<path d="M10.0555 12.2402H8.01562V14.3282H10.0555V12.2402Z" fill="black"/>
<path d="M13.5522 12.2402H11.5117V14.3282H13.5522V12.2402Z" fill="black"/>
</svg>
