<svg width="18" height="18" viewBox="0 0 18 18" fill="none" xmlns="http://www.w3.org/2000/svg">
<path d="M9 0C4.02963 0 0 4.02963 0 9C0 13.9704 4.02963 18 9 18C13.9704 18 18 13.9704 18 9C18 4.02963 13.9704 0 9 0Z" fill="#2D2929"/>
<path d="M8.44081 9.5591C8.58402 9.7023 8.78183 9.79092 9.0002 9.79092C9.41954 9.79092 9.76372 9.46296 9.78943 9.04995L13.6857 5.15325L12.8467 4.31417L9.0002 8.16024L6.41255 5.57299L5.57347 6.41206L8.21097 9.04995C8.22284 9.24855 8.30868 9.42696 8.44081 9.5591ZM9.0002 1.18652C13.3083 1.18652 16.8134 4.69158 16.8134 8.99971C16.8134 13.3078 13.3083 16.8129 9.0002 16.8129C4.69207 16.8129 1.18701 13.3078 1.18701 8.99971C1.18701 4.69158 4.69207 1.18652 9.0002 1.18652Z" fill="#F2F2F2"/>
<path d="M9.05021 8.21074L8.99997 8.1605L6.41232 5.57324L5.57324 6.41232L8.21074 9.05021C8.20915 9.03359 8.20876 9.01698 8.20876 8.99997L8.99997 8.20876C9.01698 8.20876 9.03359 8.20915 9.05021 8.21074Z" fill="#2D2929"/>
<path d="M13.6855 5.15353L12.8465 4.31445L9 8.16052L9.05024 8.21076L9.79121 8.99999C9.79121 9.017 9.79081 9.03362 9.78923 9.05023L13.6855 5.15353Z" fill="#2D2929"/>
<path d="M8.74011 8.84082L4.94579 12.6351C4.82992 12.751 4.82992 12.9389 4.94579 13.0547C5.00371 13.1126 5.07966 13.1416 5.15558 13.1416C5.2315 13.1416 5.30745 13.1127 5.36537 13.0547L9.15969 9.2604L8.74011 8.84082Z" fill="#2D2929"/>
<path d="M8.99995 9.7914C9.43622 9.7914 9.79116 9.43647 9.79116 9.00019C9.79116 8.56392 9.43622 8.20898 8.99995 8.20898C8.56368 8.20898 8.20874 8.56392 8.20874 9.00019C8.20874 9.43647 8.56368 9.7914 8.99995 9.7914Z" fill="#2D2929"/>
<path d="M9.00007 3.85737C8.83621 3.85737 8.70337 3.72452 8.70337 3.56067V2.37385C8.70337 2.20999 8.83621 2.07715 9.00007 2.07715C9.16393 2.07715 9.29678 2.20999 9.29678 2.37385V3.56067C9.29678 3.72452 9.16393 3.85737 9.00007 3.85737Z" fill="#2D2929"/>
<path d="M15.6263 9.29653H14.4395C14.2757 9.29653 14.1428 9.16369 14.1428 8.99983C14.1428 8.83597 14.2757 8.70312 14.4395 8.70312H15.6263C15.7902 8.70312 15.923 8.83597 15.923 8.99983C15.923 9.16369 15.7902 9.29653 15.6263 9.29653Z" fill="#2D2929"/>
<path d="M8.99983 15.9228C8.83597 15.9228 8.70312 15.79 8.70312 15.6261V14.4393C8.70312 14.2754 8.83597 14.1426 8.99983 14.1426C9.16369 14.1426 9.29653 14.2754 9.29653 14.4393V15.6261C9.29653 15.79 9.16369 15.9228 8.99983 15.9228Z" fill="#2D2929"/>
<path d="M3.56042 9.29653H2.37361C2.20975 9.29653 2.0769 9.16369 2.0769 8.99983C2.0769 8.83597 2.20975 8.70312 2.37361 8.70312H3.56042C3.72428 8.70312 3.85712 8.83597 3.85712 8.99983C3.85712 9.16369 3.72428 9.29653 3.56042 9.29653Z" fill="#2D2929"/>
</svg>
