<svg width="36" height="36" viewBox="0 0 36 36" fill="none" xmlns="http://www.w3.org/2000/svg">
<rect width="36" height="36" rx="5" fill="white"/>
<path fill-rule="evenodd" clip-rule="evenodd" d="M19.4853 18.0711L25.1421 23.7279L23.7279 25.1421L18.071 19.4853L12.4142 25.1421L11 23.7279L16.6568 18.0711L11 12.4142L12.4142 11L18.071 16.6569L23.7279 11L25.1421 12.4142L19.4853 18.0711Z" fill="#2D2929"/>
<path fill-rule="evenodd" clip-rule="evenodd" d="M19.4853 18.0711L25.1421 23.7279L23.7279 25.1421L18.071 19.4853L12.4142 25.1421L11 23.7279L16.6568 18.0711L11 12.4142L12.4142 11L18.071 16.6569L23.7279 11L25.1421 12.4142L19.4853 18.0711Z" fill="#2D2929"/>
<path fill-rule="evenodd" clip-rule="evenodd" d="M19.4853 18.0711L25.1421 23.7279L23.7279 25.1421L18.071 19.4853L12.4142 25.1421L11 23.7279L16.6568 18.0711L11 12.4142L12.4142 11L18.071 16.6569L23.7279 11L25.1421 12.4142L19.4853 18.0711Z" fill="#2D2929"/>
</svg>
