<svg width="12" height="12" viewBox="0 0 12 12" fill="none" xmlns="http://www.w3.org/2000/svg">
<path d="M4.71418 1.50004C4.54369 1.50004 4.38017 1.56776 4.25961 1.68832C4.13905 1.80888 4.07132 1.9724 4.07132 2.14289V2.46432C4.07132 2.54957 4.03746 2.63133 3.97718 2.69161C3.9169 2.75189 3.83514 2.78575 3.7499 2.78575C3.66465 2.78575 3.58289 2.75189 3.52261 2.69161C3.46233 2.63133 3.42847 2.54957 3.42847 2.46432V2.14289C3.42847 1.8019 3.56393 1.47487 3.80504 1.23375C4.04616 0.992637 4.37319 0.857178 4.71418 0.857178H5.03561C5.12086 0.857178 5.20262 0.891043 5.26289 0.951322C5.32317 1.0116 5.35704 1.09336 5.35704 1.17861C5.35704 1.26385 5.32317 1.34561 5.26289 1.40589C5.20262 1.46617 5.12086 1.50004 5.03561 1.50004H4.71418Z" fill="#282423"/>
<path d="M4.07132 7.28617C4.07132 7.45666 4.13905 7.62018 4.25961 7.74074C4.38017 7.8613 4.54369 7.92903 4.71418 7.92903H5.03561C5.12086 7.92903 5.20262 7.96289 5.26289 8.02317C5.32317 8.08345 5.35704 8.16521 5.35704 8.25045C5.35704 8.3357 5.32317 8.41746 5.26289 8.47774C5.20262 8.53802 5.12086 8.57188 5.03561 8.57188H4.71418C4.37319 8.57188 4.04616 8.43642 3.80504 8.19531C3.56393 7.95419 3.42847 7.62716 3.42847 7.28617V6.96474C3.42847 6.87949 3.46233 6.79773 3.52261 6.73745C3.58289 6.67718 3.66465 6.64331 3.7499 6.64331C3.83514 6.64331 3.9169 6.67718 3.97718 6.73745C4.03746 6.79773 4.07132 6.87949 4.07132 6.96474V7.28617Z" fill="#282423"/>
<path d="M4.07132 3.75038C4.07132 3.66514 4.03746 3.58338 3.97718 3.5231C3.9169 3.46282 3.83514 3.42896 3.7499 3.42896C3.66465 3.42896 3.58289 3.46282 3.52261 3.5231C3.46233 3.58338 3.42847 3.66514 3.42847 3.75038V5.67896C3.42847 5.7642 3.46233 5.84596 3.52261 5.90624C3.58289 5.96652 3.66465 6.00038 3.7499 6.00038C3.83514 6.00038 3.9169 5.96652 3.97718 5.90624C4.03746 5.84596 4.07132 5.7642 4.07132 5.67896V3.75038Z" fill="#282423"/>
<path d="M9.85733 1.50004C10.0278 1.50004 10.1913 1.56776 10.3119 1.68832C10.4325 1.80888 10.5002 1.9724 10.5002 2.14289V2.46432C10.5002 2.54957 10.5341 2.63133 10.5943 2.69161C10.6546 2.75189 10.7364 2.78575 10.8216 2.78575C10.9069 2.78575 10.9886 2.75189 11.0489 2.69161C11.1092 2.63133 11.143 2.54957 11.143 2.46432V2.14289C11.143 1.8019 11.0076 1.47487 10.7665 1.23375C10.5254 0.992637 10.1983 0.857178 9.85733 0.857178H9.53591C9.45066 0.857178 9.3689 0.891043 9.30862 0.951322C9.24834 1.0116 9.21448 1.09336 9.21448 1.17861C9.21448 1.26385 9.24834 1.34561 9.30862 1.40589C9.3689 1.46617 9.45066 1.50004 9.53591 1.50004H9.85733Z" fill="#282423"/>
<path d="M9.85733 7.92854C10.0278 7.92854 10.1913 7.86081 10.3119 7.74025C10.4325 7.61969 10.5002 7.45618 10.5002 7.28568V6.96425C10.5002 6.879 10.5341 6.79725 10.5943 6.73697C10.6546 6.67669 10.7364 6.64282 10.8216 6.64282C10.9069 6.64282 10.9886 6.67669 11.0489 6.73697C11.1092 6.79725 11.143 6.879 11.143 6.96425V7.28568C11.143 7.62667 11.0076 7.9537 10.7665 8.19482C10.5254 8.43594 10.1983 8.57139 9.85733 8.57139H9.53591C9.45066 8.57139 9.3689 8.53753 9.30862 8.47725C9.24834 8.41697 9.21448 8.33521 9.21448 8.24997C9.21448 8.16472 9.24834 8.08296 9.30862 8.02268C9.3689 7.9624 9.45066 7.92854 9.53591 7.92854H9.85733Z" fill="#282423"/>
<path d="M10.8214 3.42847C10.7362 3.42847 10.6544 3.46233 10.5941 3.52261C10.5339 3.58289 10.5 3.66465 10.5 3.7499V5.67847C10.5 5.76372 10.5339 5.84547 10.5941 5.90575C10.6544 5.96603 10.7362 5.9999 10.8214 5.9999C10.9067 5.9999 10.9884 5.96603 11.0487 5.90575C11.109 5.84547 11.1429 5.76372 11.1429 5.67847V3.7499C11.1429 3.66465 11.109 3.58289 11.0487 3.52261C10.9884 3.46233 10.9067 3.42847 10.8214 3.42847Z" fill="#282423"/>
<path d="M6.32167 0.857178C6.23642 0.857178 6.15467 0.891043 6.09439 0.951322C6.03411 1.0116 6.00024 1.09336 6.00024 1.17861C6.00024 1.26385 6.03411 1.34561 6.09439 1.40589C6.15467 1.46617 6.23642 1.50004 6.32167 1.50004H8.25025C8.33549 1.50004 8.41725 1.46617 8.47753 1.40589C8.53781 1.34561 8.57167 1.26385 8.57167 1.17861C8.57167 1.09336 8.53781 1.0116 8.47753 0.951322C8.41725 0.891043 8.33549 0.857178 8.25025 0.857178H6.32167Z" fill="#282423"/>
<path d="M6.00024 8.25014C6.00024 8.16489 6.03411 8.08313 6.09439 8.02286C6.15467 7.96258 6.23642 7.92871 6.32167 7.92871H8.25025C8.33549 7.92871 8.41725 7.96258 8.47753 8.02286C8.53781 8.08313 8.57167 8.16489 8.57167 8.25014C8.57167 8.33539 8.53781 8.41715 8.47753 8.47742C8.41725 8.5377 8.33549 8.57157 8.25025 8.57157H6.32167C6.23642 8.57157 6.15467 8.5377 6.09439 8.47742C6.03411 8.41715 6.00024 8.33539 6.00024 8.25014Z" fill="#282423"/>
<path d="M2.14289 3.42847H2.78575V4.07132H2.14289C1.9724 4.07132 1.80888 4.13905 1.68832 4.25961C1.56776 4.38017 1.50004 4.54369 1.50004 4.71418V8.89276C1.50004 9.319 1.66936 9.72778 1.97076 10.0292C2.27215 10.3306 2.68094 10.4999 3.10718 10.4999H7.28575C7.45625 10.4999 7.61976 10.4322 7.74032 10.3116C7.86088 10.1911 7.92861 10.0275 7.92861 9.85704V9.21418H8.57147V9.85704C8.57147 10.198 8.43601 10.5251 8.19489 10.7662C7.95377 11.0073 7.62675 11.1428 7.28575 11.1428H3.10718C2.51044 11.1428 1.93815 10.9057 1.51619 10.4837C1.09423 10.0618 0.857178 9.48949 0.857178 8.89276V4.71418C0.857178 4.37319 0.992637 4.04616 1.23375 3.80504C1.47487 3.56393 1.8019 3.42847 2.14289 3.42847V3.42847Z" fill="#282423"/>
</svg>
