<svg xmlns="http://www.w3.org/2000/svg" width="1127" height="511" viewBox="0 0 1127 511" fill="none">
<g clip-path="url(#clip0_801_1290)">

<g filter="url(#filter0_d_801_1290)">
<path d="M82.5998 233.589L34.7789 343.834C137.377 370.904 273.884 294.715 315.184 251.053C293.447 242.321 265.189 227.04 244.539 209.575C252.364 208.702 257.219 204.117 258.668 201.934C221.715 179.012 196.718 156.09 177.155 129.893C188.458 132.513 199.254 128.074 203.239 125.527C164.113 88.8511 132.594 43.6615 115.205 0C103.032 39.2953 49.9946 98.6022 24.9973 123.344C31.0836 129.456 57.9648 130.984 70.6446 130.984C65.4278 145.829 21.3745 209.211 0 239.047C36.5178 250.399 70.2823 240.138 82.5998 233.589Z" fill="url(#paint0_linear_801_1290)"/>
</g>
<path d="M156.031 221.564L59.292 418.164L93.6189 433.767H374.476V259.012V221.564H156.031Z" fill="white"/>
<g filter="url(#filter1_d_801_1290)">
<path d="M156.031 221.564L59.292 418.164L93.6189 433.767L177.876 259.012H374.476V221.564H156.031Z" fill="#4E4747"/>
</g>
<path d="M223.356 464.012V336.572H241.176V389.852H305.616V336.572H323.616V464.012H305.616V405.692H241.176V464.012H223.356ZM372.309 405.692V448.172H438.909V464.012H354.489V336.572H436.209V352.232H372.309V390.392H432.429V405.692H372.309ZM462.594 464.012V336.572H506.334C514.854 336.572 523.014 337.832 530.814 340.352C538.734 342.752 546.054 346.412 552.774 351.332C559.494 356.252 564.894 362.972 568.974 371.492C573.054 379.892 575.094 389.492 575.094 400.292C575.094 410.732 573.054 420.152 568.974 428.552C564.894 436.952 559.494 443.672 552.774 448.712C546.174 453.632 538.854 457.412 530.814 460.052C522.894 462.692 514.734 464.012 506.334 464.012H462.594ZM480.414 352.052V448.352H502.734C518.454 448.352 531.234 444.092 541.074 435.572C551.034 426.932 556.014 415.172 556.014 400.292C556.014 384.932 551.094 373.052 541.254 364.652C531.414 356.252 518.574 352.052 502.734 352.052H480.414ZM728.048 400.112C728.048 419.672 721.628 435.752 708.788 448.352C696.068 460.952 679.928 467.252 660.368 467.252C640.928 467.252 624.848 460.952 612.128 448.352C599.408 435.752 593.048 419.672 593.048 400.112C593.048 380.432 599.348 364.412 611.948 352.052C624.668 339.572 640.808 333.332 660.368 333.332C679.928 333.332 696.068 339.572 708.788 352.052C721.628 364.412 728.048 380.432 728.048 400.112ZM708.788 400.112C708.788 385.712 704.348 373.592 695.468 363.752C686.588 353.912 674.888 348.992 660.368 348.992C646.088 348.992 634.508 353.912 625.628 363.752C616.748 373.592 612.308 385.712 612.308 400.112C612.308 414.632 616.748 426.812 625.628 436.652C634.508 446.372 646.088 451.232 660.368 451.232C674.888 451.232 686.588 446.372 695.468 436.652C704.348 426.812 708.788 414.632 708.788 400.112ZM775.502 336.572L842.102 438.452H842.462V336.572H860.282V464.012H837.782L770.462 359.972H770.102V464.012H752.282V336.572H775.502ZM909.145 336.572V464.012H891.325V336.572H909.145ZM1016.15 347.912L1003.55 360.152C1000.91 356.552 997.372 353.672 992.932 351.512C988.612 349.352 983.872 348.272 978.712 348.272C972.232 348.272 966.472 350.072 961.432 353.672C956.392 357.152 953.872 362.252 953.872 368.972C953.872 372.332 954.472 375.212 955.672 377.612C956.872 379.892 958.912 381.932 961.792 383.732C964.672 385.412 967.252 386.732 969.532 387.692C971.812 388.532 975.292 389.732 979.972 391.292C984.652 392.732 988.192 393.932 990.592 394.892C993.112 395.732 996.352 397.232 1000.31 399.392C1004.27 401.552 1007.27 403.832 1009.31 406.232C1011.47 408.512 1013.33 411.572 1014.89 415.412C1016.57 419.252 1017.41 423.632 1017.41 428.552C1017.41 441.032 1013.09 450.632 1004.45 457.352C995.932 463.952 985.552 467.252 973.312 467.252C965.032 467.252 957.112 465.692 949.552 462.572C942.112 459.332 936.052 454.712 931.372 448.712L945.232 437.012C948.232 441.452 952.252 445.052 957.292 447.812C962.452 450.572 967.912 451.952 973.672 451.952C980.392 451.952 986.332 450.092 991.492 446.372C996.652 442.532 999.232 437.132 999.232 430.172C999.232 427.172 998.632 424.472 997.432 422.072C996.232 419.672 994.912 417.752 993.472 416.312C992.032 414.872 989.692 413.432 986.452 411.992C983.212 410.432 980.572 409.292 978.532 408.572C976.612 407.852 973.432 406.832 968.992 405.512C964.192 403.952 960.112 402.452 956.752 401.012C953.512 399.452 950.092 397.352 946.492 394.712C943.012 391.952 940.372 388.472 938.572 384.272C936.772 380.072 935.872 375.212 935.872 369.692C935.872 361.652 938.092 354.812 942.532 349.172C946.972 343.412 952.372 339.332 958.732 336.932C965.212 334.532 972.172 333.332 979.612 333.332C986.932 333.332 993.832 334.652 1000.31 337.292C1006.91 339.932 1012.19 343.472 1016.15 347.912ZM1084.5 352.232V464.012H1066.68V352.232H1025.82V336.572H1125.36V352.232H1084.5Z" fill="#4E4747"/>
</g>
<defs>
<filter id="filter0_d_801_1290" x="-49.9301" y="-24.965" width="390.079" height="424.405" filterUnits="userSpaceOnUse" color-interpolation-filters="sRGB">
<feFlood flood-opacity="0" result="BackgroundImageFix"/>
<feColorMatrix in="SourceAlpha" type="matrix" values="0 0 0 0 0 0 0 0 0 0 0 0 0 0 0 0 0 0 127 0" result="hardAlpha"/>
<feOffset dx="-12.4825" dy="12.4825"/>
<feGaussianBlur stdDeviation="18.7238"/>
<feComposite in2="hardAlpha" operator="out"/>
<feColorMatrix type="matrix" values="0 0 0 0 0 0 0 0 0 0 0 0 0 0 0 0 0 0 0.25 0"/>
<feBlend mode="normal" in2="BackgroundImageFix" result="effect1_dropShadow_801_1290"/>
<feBlend mode="normal" in="SourceGraphic" in2="effect1_dropShadow_801_1290" result="shape"/>
</filter>
<filter id="filter1_d_801_1290" x="53.0507" y="205.961" width="371.355" height="268.374" filterUnits="userSpaceOnUse" color-interpolation-filters="sRGB">
<feFlood flood-opacity="0" result="BackgroundImageFix"/>
<feColorMatrix in="SourceAlpha" type="matrix" values="0 0 0 0 0 0 0 0 0 0 0 0 0 0 0 0 0 0 127 0" result="hardAlpha"/>
<feOffset dx="21.8444" dy="12.4825"/>
<feGaussianBlur stdDeviation="14.0428"/>
<feComposite in2="hardAlpha" operator="out"/>
<feColorMatrix type="matrix" values="0 0 0 0 0 0 0 0 0 0 0 0 0 0 0 0 0 0 0.25 0"/>
<feBlend mode="normal" in2="BackgroundImageFix" result="effect1_dropShadow_801_1290"/>
<feBlend mode="normal" in="SourceGraphic" in2="effect1_dropShadow_801_1290" result="shape"/>
</filter>
<linearGradient id="paint0_linear_801_1290" x1="121.726" y1="14.19" x2="81.2069" y2="123.23" gradientUnits="userSpaceOnUse">
<stop stop-color="#93BC87"/>
<stop offset="1" stop-color="#0C3E26"/>
</linearGradient>
<clipPath id="clip0_801_1290">
<rect width="1126.88" height="510.012" fill="white"/>
</clipPath>
</defs>
</svg>