<svg width="170" height="70" viewBox="0 0 170 70" fill="none" xmlns="http://www.w3.org/2000/svg">
<path d="M67.548 41V28.256H69.33V33.584H75.774V28.256H77.574V41H75.774V35.168H69.33V41H67.548ZM82.4433 35.168V39.416H89.1033V41H80.6613V28.256H88.8333V29.822H82.4433V33.638H88.4553V35.168H82.4433ZM91.4718 41V28.256H95.8458C96.6978 28.256 97.5138 28.382 98.2938 28.634C99.0858 28.874 99.8178 29.24 100.49 29.732C101.162 30.224 101.702 30.896 102.11 31.748C102.518 32.588 102.722 33.548 102.722 34.628C102.722 35.672 102.518 36.614 102.11 37.454C101.702 38.294 101.162 38.966 100.49 39.47C99.8298 39.962 99.0978 40.34 98.2938 40.604C97.5018 40.868 96.6858 41 95.8458 41H91.4718ZM93.2538 29.804V39.434H95.4858C97.0578 39.434 98.3358 39.008 99.3198 38.156C100.316 37.292 100.814 36.116 100.814 34.628C100.814 33.092 100.322 31.904 99.3378 31.064C98.3538 30.224 97.0698 29.804 95.4858 29.804H93.2538ZM118.017 34.61C118.017 36.566 117.375 38.174 116.091 39.434C114.819 40.694 113.205 41.324 111.249 41.324C109.305 41.324 107.697 40.694 106.425 39.434C105.153 38.174 104.517 36.566 104.517 34.61C104.517 32.642 105.147 31.04 106.407 29.804C107.679 28.556 109.293 27.932 111.249 27.932C113.205 27.932 114.819 28.556 116.091 29.804C117.375 31.04 118.017 32.642 118.017 34.61ZM116.091 34.61C116.091 33.17 115.647 31.958 114.759 30.974C113.871 29.99 112.701 29.498 111.249 29.498C109.821 29.498 108.663 29.99 107.775 30.974C106.887 31.958 106.443 33.17 106.443 34.61C106.443 36.062 106.887 37.28 107.775 38.264C108.663 39.236 109.821 39.722 111.249 39.722C112.701 39.722 113.871 39.236 114.759 38.264C115.647 37.28 116.091 36.062 116.091 34.61ZM122.763 28.256L129.423 38.444H129.459V28.256H131.241V41H128.991L122.259 30.596H122.223V41H120.441V28.256H122.763ZM136.127 28.256V41H134.345V28.256H136.127ZM146.828 29.39L145.568 30.614C145.304 30.254 144.95 29.966 144.506 29.75C144.074 29.534 143.6 29.426 143.084 29.426C142.436 29.426 141.86 29.606 141.356 29.966C140.852 30.314 140.6 30.824 140.6 31.496C140.6 31.832 140.66 32.12 140.78 32.36C140.9 32.588 141.104 32.792 141.392 32.972C141.68 33.14 141.938 33.272 142.166 33.368C142.394 33.452 142.742 33.572 143.21 33.728C143.678 33.872 144.032 33.992 144.272 34.088C144.524 34.172 144.848 34.322 145.244 34.538C145.64 34.754 145.94 34.982 146.144 35.222C146.36 35.45 146.546 35.756 146.702 36.14C146.87 36.524 146.954 36.962 146.954 37.454C146.954 38.702 146.522 39.662 145.658 40.334C144.806 40.994 143.768 41.324 142.544 41.324C141.716 41.324 140.924 41.168 140.168 40.856C139.424 40.532 138.818 40.07 138.35 39.47L139.736 38.3C140.036 38.744 140.438 39.104 140.942 39.38C141.458 39.656 142.004 39.794 142.58 39.794C143.252 39.794 143.846 39.608 144.362 39.236C144.878 38.852 145.136 38.312 145.136 37.616C145.136 37.316 145.076 37.046 144.956 36.806C144.836 36.566 144.704 36.374 144.56 36.23C144.416 36.086 144.182 35.942 143.858 35.798C143.534 35.642 143.27 35.528 143.066 35.456C142.874 35.384 142.556 35.282 142.112 35.15C141.632 34.994 141.224 34.844 140.888 34.7C140.564 34.544 140.222 34.334 139.862 34.07C139.514 33.794 139.25 33.446 139.07 33.026C138.89 32.606 138.8 32.12 138.8 31.568C138.8 30.764 139.022 30.08 139.466 29.516C139.91 28.94 140.45 28.532 141.086 28.292C141.734 28.052 142.43 27.932 143.174 27.932C143.906 27.932 144.596 28.064 145.244 28.328C145.904 28.592 146.432 28.946 146.828 29.39ZM153.662 29.822V41H151.88V29.822H147.794V28.256H157.748V29.822H153.662Z" fill="#302C26"/>
<path d="M12 18.4526L16.3324 15.3477V56.0001H12V18.4526Z" fill="#302C26"/>
<path d="M12 14.4194L16.3324 11.3145V15.7913L12 18.8962V14.4194Z" fill="#302C26"/>
<path d="M27.9971 33.3998L32.3295 30.2949V34.7717L27.9971 37.8766V33.3998Z" fill="#302C26"/>
<path d="M45 36.1049L49.3324 33V37.4768L45 40.5817V36.1049Z" fill="#302C26"/>
<path d="M53.3325 36.1049L49.0001 33V37.4768L53.3325 40.5817V36.1049Z" fill="#302C26"/>
<path d="M45 33.4766L49.3324 36.5815V32.1047L45 28.9998V33.4766Z" fill="#302C26"/>
<path d="M53.3325 33.4766L49.0001 36.5815V32.1047L53.3325 28.9998V33.4766Z" fill="#302C26"/>
<path d="M27.9971 15.3471L32.3295 12.2422V16.719L27.9971 19.8239V15.3471Z" fill="#302C26"/>
<path d="M16.332 11.3149L20.6644 8.20996V12.6868L16.332 15.7917V11.3149Z" fill="#302C26"/>
<path d="M20.665 8.20988L24.9975 5.10498V9.58181L20.665 12.6867V8.20988Z" fill="#302C26"/>
<path d="M24.9971 5.1049L29.3295 2V6.47683L24.9971 9.58173V5.1049Z" fill="#302C26"/>
<path d="M32 12.4194L36.3324 9.31445V13.7913L32 16.8962V12.4194Z" fill="#302C26"/>
<path d="M36.332 9.31486L40.6644 6.20996V10.6868L36.332 13.7917V9.31486Z" fill="#302C26"/>
<path d="M40.665 6.20988L44.9975 3.10498V7.58181L40.665 10.6867V6.20988Z" fill="#302C26"/>
<path d="M44.9971 3.1049L49.3295 0V4.47683L44.9971 7.58173V3.1049Z" fill="#302C26"/>
<path d="M23.665 18.4526L27.9975 15.3477V56.0001H23.665V18.4526Z" fill="#302C26"/>
<rect x="28" y="52" width="21" height="4" fill="#302C26"/>
<path d="M16 33.3794L28 33.3794V37.9998H16V33.3794Z" fill="#302C26"/>
</svg>
