<svg width="42" height="56" viewBox="0 0 42 56" fill="none" xmlns="http://www.w3.org/2000/svg">
<path d="M0 18.4526L4.33241 15.3477V56.0001H0V18.4526Z" fill="#302C26"/>
<path d="M0 14.4194L4.33241 11.3145V15.7913L0 18.8962V14.4194Z" fill="#302C26"/>
<path d="M15.9971 33.3998L20.3295 30.2949V34.7717L15.9971 37.8766V33.3998Z" fill="#302C26"/>
<path d="M33 36.1049L37.3324 33V37.4768L33 40.5817V36.1049Z" fill="#302C26"/>
<path d="M41.3325 36.1049L37.0001 33V37.4768L41.3325 40.5817V36.1049Z" fill="#302C26"/>
<path d="M33 33.4771L37.3324 36.582V32.1052L33 29.0003V33.4771Z" fill="#302C26"/>
<path d="M41.3325 33.4771L37.0001 36.582V32.1052L41.3325 29.0003V33.4771Z" fill="#302C26"/>
<path d="M15.9971 15.3471L20.3295 12.2422V16.719L15.9971 19.8239V15.3471Z" fill="#302C26"/>
<path d="M4.33203 11.3149L8.66445 8.20996V12.6868L4.33203 15.7917V11.3149Z" fill="#302C26"/>
<path d="M8.66504 8.21037L12.9975 5.10547V9.5823L8.66504 12.6872V8.21037Z" fill="#302C26"/>
<path d="M12.9971 5.1049L17.3295 2V6.47683L12.9971 9.58173V5.1049Z" fill="#302C26"/>
<path d="M20 12.4194L24.3324 9.31445V13.7913L20 16.8962V12.4194Z" fill="#302C26"/>
<path d="M24.332 9.31486L28.6644 6.20996V10.6868L24.332 13.7917V9.31486Z" fill="#302C26"/>
<path d="M28.665 6.21037L32.9975 3.10547V7.5823L28.665 10.6872V6.21037Z" fill="#302C26"/>
<path d="M32.9971 3.1049L37.3295 0V4.47683L32.9971 7.58173V3.1049Z" fill="#302C26"/>
<path d="M11.665 18.4526L15.9975 15.3477V56.0001H11.665V18.4526Z" fill="#302C26"/>
<rect x="16" y="52" width="21" height="4" fill="#302C26"/>
<path d="M4 33.3789L16 33.3789V37.9993H4V33.3789Z" fill="#302C26"/>
</svg>
