<svg width="18" height="18" viewBox="0 0 18 18" fill="none" xmlns="http://www.w3.org/2000/svg">
<path d="M0.166016 12.2012C0.571201 12.7142 1.02014 13.191 1.50777 13.6262C1.50627 13.5835 1.50027 13.543 1.50027 13.5002C1.5032 12.7391 1.73637 11.9966 2.16914 11.3704C2.60191 10.7442 3.21402 10.2636 3.92502 9.99174C4.05578 9.94227 4.17012 9.85722 4.25511 9.74621C4.34011 9.6352 4.39238 9.50264 4.40603 9.36349C4.41968 9.22434 4.39416 9.08415 4.33236 8.95874C4.27056 8.83333 4.17493 8.72769 4.05627 8.65374C3.73201 8.45341 3.46462 8.17318 3.27972 7.83988C3.09482 7.50658 2.99859 7.13139 3.00027 6.75024C2.99863 6.3133 3.12477 5.8854 3.36316 5.51921C3.60155 5.15302 3.9418 4.86451 4.34203 4.68918C4.74226 4.51385 5.18502 4.45934 5.61582 4.53238C6.04663 4.60541 6.44668 4.8028 6.76677 5.10024C7.23562 4.83113 7.74946 4.64943 8.28327 4.56399C7.99068 4.15524 7.61882 3.80955 7.18982 3.54755C6.76082 3.28554 6.28347 3.11257 5.78622 3.03893C5.28896 2.9653 4.78197 2.99252 4.29545 3.11896C3.80893 3.2454 3.35285 3.46849 2.95436 3.77491C2.55588 4.08134 2.22316 4.46485 1.97602 4.90258C1.72888 5.34031 1.57238 5.82331 1.51584 6.3228C1.45931 6.82229 1.5039 7.32805 1.64695 7.80994C1.79001 8.29184 2.0286 8.74001 2.34852 9.12774C1.26912 9.85034 0.492505 10.944 0.166016 12.2012ZM17.8345 12.2012C17.5084 10.9435 16.7317 9.84921 15.652 9.12624C15.9709 8.73839 16.2085 8.29039 16.3508 7.80886C16.4931 7.32733 16.5371 6.82212 16.4802 6.32325C16.4233 5.82438 16.2667 5.34204 16.0197 4.9049C15.7726 4.46777 15.4402 4.08476 15.0422 3.77865C14.6442 3.47254 14.1888 3.24958 13.7029 3.12302C13.217 2.99647 12.7106 2.96889 12.2138 3.04195C11.7171 3.115 11.2401 3.28719 10.8112 3.54827C10.3823 3.80936 10.0103 4.15401 9.71727 4.56174C10.2511 4.64715 10.7649 4.82885 11.2338 5.09799C11.4636 4.88665 11.7349 4.72556 12.0305 4.62503C12.3261 4.5245 12.6394 4.48672 12.9504 4.51413C13.2614 4.54153 13.5632 4.63351 13.8367 4.78418C14.1101 4.93486 14.3491 5.14091 14.5384 5.38919C14.7277 5.63746 14.8631 5.92249 14.936 6.22606C15.0089 6.52964 15.0177 6.84508 14.9618 7.15224C14.9059 7.4594 14.7865 7.75151 14.6113 8.00992C14.4361 8.26833 14.2089 8.48736 13.9443 8.65299C13.8256 8.72694 13.73 8.83258 13.6682 8.95799C13.6064 9.0834 13.5808 9.22359 13.5945 9.36274C13.6081 9.50189 13.6604 9.63445 13.7454 9.74546C13.8304 9.85647 13.9447 9.94152 14.0755 9.99099C14.7866 10.2629 15.3988 10.7436 15.8316 11.3699C16.2644 11.9963 16.4975 12.7389 16.5003 13.5002C16.5003 13.543 16.4943 13.5835 16.4928 13.6255C16.9804 13.1904 17.4293 12.7139 17.8345 12.2012Z" fill="black"/>
<path d="M14.2162 15.2128C14.1347 14.4431 13.8852 13.7007 13.4854 13.038C13.0856 12.3753 12.5453 11.8084 11.9024 11.3773C12.4538 10.708 12.7539 9.867 12.7507 8.99982C12.7503 8.39898 12.6056 7.80702 12.3287 7.27379C12.0518 6.74056 11.6509 6.28167 11.1596 5.93576C10.6683 5.58985 10.1011 5.36705 9.50575 5.28612C8.91039 5.2052 8.30429 5.26851 7.73851 5.47074C7.17273 5.67296 6.66382 6.00817 6.25464 6.44815C5.84547 6.88812 5.548 7.41998 5.38729 7.99892C5.22658 8.57786 5.20734 9.18695 5.33118 9.77488C5.45502 10.3628 5.71832 10.9124 6.09891 11.3773C5.45606 11.8084 4.91567 12.3753 4.51588 13.038C4.11609 13.7007 3.86664 14.4431 3.78516 15.2128C4.26126 15.4602 4.75453 15.673 5.26116 15.8496C5.25966 15.8158 5.25066 15.7843 5.25066 15.7498C5.2538 14.9887 5.48705 14.2463 5.91979 13.6201C6.35254 12.994 6.96453 12.5133 7.67541 12.2413C7.80636 12.1919 7.92088 12.1069 8.00602 11.9958C8.09116 11.8847 8.14352 11.752 8.15718 11.6127C8.17083 11.4734 8.14524 11.3331 8.0833 11.2076C8.02135 11.0821 7.92553 10.9764 7.80666 10.9026C7.48231 10.7025 7.21483 10.4224 7.02991 10.0892C6.84499 9.75604 6.74882 9.38089 6.75066 8.99982C6.75066 8.40308 6.98771 7.83078 7.40967 7.40882C7.83162 6.98687 8.40392 6.74982 9.00066 6.74982C9.59739 6.74982 10.1697 6.98687 10.5916 7.40882C11.0136 7.83078 11.2507 8.40308 11.2507 8.99982C11.2525 9.38089 11.1563 9.75604 10.9714 10.0892C10.7865 10.4224 10.519 10.7025 10.1947 10.9026C10.0758 10.9764 9.97996 11.0821 9.91802 11.2076C9.85607 11.3331 9.83048 11.4734 9.84413 11.6127C9.85779 11.752 9.91015 11.8847 9.99529 11.9958C10.0804 12.1069 10.195 12.1919 10.3259 12.2413C11.0368 12.5133 11.6488 12.994 12.0815 13.6201C12.5143 14.2463 12.7475 14.9887 12.7507 15.7498C12.7507 15.7843 12.7417 15.8158 12.7409 15.8496C13.2473 15.6729 13.7403 15.4601 14.2162 15.2128Z" fill="black"/>
</svg>
