<svg width="18" height="18" viewBox="0 0 18 18" fill="none" xmlns="http://www.w3.org/2000/svg">
<path d="M9 15.1199C5.616 15.1199 2.88 12.3839 2.88 8.99988C2.88 5.61588 5.616 2.87988 9 2.87988C12.384 2.87988 15.12 5.61588 15.12 8.99988C15.12 12.3839 12.384 15.1199 9 15.1199ZM9 3.59988C6.012 3.59988 3.6 6.01188 3.6 8.99988C3.6 11.9879 6.012 14.3999 9 14.3999C11.988 14.3999 14.4 11.9879 14.4 8.99988C14.4 6.01188 11.988 3.59988 9 3.59988Z" fill="black"/>
<path d="M7.12799 7.0559C7.23599 6.7679 7.34399 6.5519 7.55999 6.3719C7.73999 6.1919 7.95599 6.0479 8.24399 5.9399C8.53199 5.8319 8.81999 5.7959 9.14399 5.7959C9.39599 5.7959 9.64799 5.8319 9.86399 5.9039C10.08 5.9759 10.296 6.0839 10.476 6.2279C10.656 6.3719 10.8 6.5519 10.872 6.7679C10.98 6.9839 11.016 7.2359 11.016 7.4879C11.016 7.8479 10.944 8.1359 10.8 8.3879C10.656 8.6399 10.44 8.8559 10.224 9.1079L9.75599 9.5759C9.64799 9.6839 9.53999 9.7919 9.50399 9.8999C9.43199 10.0079 9.39599 10.1519 9.39599 10.2959C9.35999 10.4399 9.35999 10.5479 9.35999 10.8359H8.78399C8.78399 10.5479 8.78399 10.4399 8.81999 10.2239C8.85599 10.0439 8.92799 9.8639 8.99999 9.6839C9.07199 9.5399 9.17999 9.3959 9.32399 9.2519C9.46799 9.1079 9.64799 8.9639 9.82799 8.7479C10.008 8.5679 10.152 8.3879 10.26 8.2079C10.368 8.0279 10.44 7.7759 10.44 7.5599C10.44 7.3799 10.404 7.1999 10.332 7.0559C10.26 6.9119 10.152 6.7679 10.044 6.6599C9.93599 6.5519 9.79199 6.4799 9.61199 6.4079C9.43199 6.3359 9.28799 6.2999 9.10799 6.2999C8.85599 6.2999 8.63999 6.3359 8.45999 6.4439C8.27999 6.5159 8.09999 6.6599 7.99199 6.8039C7.88399 6.9479 7.77599 7.1279 7.70399 7.3439C7.63199 7.5599 7.55999 7.6679 7.55999 7.9199H6.98399C6.98399 7.5959 7.01999 7.3439 7.12799 7.0559ZM9.35999 11.5199V12.2399H8.63999V11.5199H9.35999Z" fill="black"/>
</svg>
