<svg width="26" height="32" viewBox="0 0 26 32" fill="none" xmlns="http://www.w3.org/2000/svg">
<path d="M9.176 3.2V17.072H13.88C16.472 17.072 18.488 16.512 19.928 15.392C21.4 14.272 22.136 12.64 22.136 10.496C22.136 8.16 21.368 6.368 19.832 5.12C18.328 3.84 16.168 3.2 13.352 3.2H9.176ZM13.544 19.712H9.176V24.992H19.064V27.632H9.176V32H6.2V27.632H0.824V24.992H6.2V19.712H0.824V17.072H6.2V0.559999H13.016C16.824 0.559999 19.8 1.44 21.944 3.2C24.088 4.928 25.16 7.328 25.16 10.4C25.16 13.248 24.136 15.52 22.088 17.216C20.04 18.88 17.192 19.712 13.544 19.712Z" fill="#4E4747"/>
</svg>
