<svg width="120" height="120" viewBox="0 0 120 120" fill="none" xmlns="http://www.w3.org/2000/svg">
<path d="M11 26.1201L25.532 52.0951V67.9391L11.017 93.8631L11 26.1201Z" fill="#5B57A2"/>
<path d="M66.7971 42.6435L80.4141 34.2975L108.282 34.2715L66.7971 59.6855V42.6435Z" fill="#D90751"/>
<path d="M66.72 25.967L66.797 60.357L52.231 51.407V0L66.721 25.967H66.72Z" fill="#FAB718"/>
<path d="M108.282 34.271L80.413 34.297L66.72 25.967L52.231 0L108.281 34.271H108.282Z" fill="#ED6F26"/>
<path d="M66.797 94.007V77.322L52.231 68.542L52.239 120L66.797 94.007Z" fill="#63B22F"/>
<path d="M80.38 85.7371L25.531 52.0951L11 26.1201L108.223 85.7031L80.379 85.7371H80.38Z" fill="#1487C9"/>
<path d="M52.24 120L66.796 94.0071L80.379 85.7371L108.222 85.7031L52.24 120Z" fill="#017F36"/>
<path d="M11.0171 93.8626L52.3501 68.5426L38.4541 60.0166L25.5321 67.9386L11.0171 93.8626Z" fill="#984995"/>
</svg>
