<svg width="18" height="18" viewBox="0 0 18 18" fill="none" xmlns="http://www.w3.org/2000/svg">
<g clip-path="url(#clip0_230_2154)">
<path d="M13.7501 0.486328C11.4066 0.486328 9.5 2.39292 9.5 4.7364V8.91834C9.5 9.11634 9.66056 9.2769 9.85856 9.2769H10.2879V14.0505C10.2879 15.9595 11.8411 17.5126 13.7501 17.5126C15.6592 17.5126 17.2123 15.9595 17.2123 14.0505V9.27694H17.6416C17.8396 9.27694 18.0001 9.11638 18.0001 8.91838V4.73644C18.0001 2.39296 16.0936 0.486328 13.7501 0.486328ZM13.75 16.7956C12.2364 16.7956 11.005 15.5641 11.005 14.0505V9.27694H16.4951V14.0505H16.4951C16.4951 15.5641 15.2637 16.7956 13.75 16.7956ZM17.283 8.55982H10.2171V4.73644C10.2171 2.78836 11.802 1.20348 13.75 1.20348C15.6981 1.20348 17.283 2.78836 17.283 4.73644V8.55982Z" fill="black"/>
<path d="M15.6359 12.6172C15.4379 12.6172 15.2773 12.7777 15.2773 12.9757V13.2597C15.2773 13.4577 15.4379 13.6183 15.6359 13.6183C15.8339 13.6183 15.9945 13.4577 15.9945 13.2597V12.9757C15.9945 12.7777 15.8339 12.6172 15.6359 12.6172Z" fill="black"/>
<path d="M15.6359 9.69629C15.4379 9.69629 15.2773 9.85685 15.2773 10.0548V11.7588C15.2773 11.9568 15.4379 12.1174 15.6359 12.1174C15.8339 12.1174 15.9945 11.9568 15.9945 11.7588V10.0548C15.9945 9.85685 15.8339 9.69629 15.6359 9.69629Z" fill="black"/>
<path d="M4.25007 0.486328C1.90656 0.486328 0 2.39296 0 4.73644V8.91838C0 9.11638 0.160523 9.27694 0.358559 9.27694H0.787922V14.0505C0.787922 15.9595 2.34105 17.5127 4.25007 17.5127C6.15909 17.5127 7.71223 15.9595 7.71223 14.0505V9.27694H8.14159C8.33962 9.27694 8.50015 9.11638 8.50015 8.91838V4.73644C8.50018 2.39296 6.59359 0.486328 4.25007 0.486328ZM6.99511 14.0505C6.99511 15.5641 5.76369 16.7956 4.25007 16.7956C2.73646 16.7956 1.50504 15.5641 1.50504 14.0505V9.27694H6.99511V14.0505ZM7.78303 8.55982H0.717117V4.73644C0.717117 2.78836 2.302 1.20348 4.25007 1.20348C6.19815 1.20348 7.78303 2.78836 7.78303 4.73644V8.55982Z" fill="black"/>
<path d="M6.1359 12.6172C5.93787 12.6172 5.77734 12.7777 5.77734 12.9757V13.2597C5.77734 13.4577 5.93787 13.6183 6.1359 13.6183C6.33394 13.6183 6.49446 13.4577 6.49446 13.2597V12.9757C6.49446 12.7777 6.33394 12.6172 6.1359 12.6172Z" fill="black"/>
<path d="M6.1359 9.69629C5.93787 9.69629 5.77734 9.85685 5.77734 10.0548V11.7588C5.77734 11.9568 5.93787 12.1174 6.1359 12.1174C6.33394 12.1174 6.49446 11.9568 6.49446 11.7588V10.0548C6.49446 9.85685 6.33394 9.69629 6.1359 9.69629Z" fill="black"/>
</g>
<defs>
<clipPath id="clip0_230_2154">
<rect width="18" height="18" fill="white"/>
</clipPath>
</defs>
</svg>
